<mxfile host="app.diagrams.net" modified="2021-12-15T16:38:06.964Z" agent="5.0 (Windows NT 10.0; Win64; x64) AppleWebKit/537.36 (KHTML, like Gecko) Chrome/93.0.4577.82 Safari/537.36" etag="VoDsKhlNJTSuVFD3im97" version="15.9.6" type="github">
  <diagram id="H5ACdtlDE7LfX7E84oex" name="第 1 页">
    <mxGraphModel dx="1422" dy="754" grid="1" gridSize="10" guides="1" tooltips="1" connect="1" arrows="1" fold="1" page="1" pageScale="1" pageWidth="827" pageHeight="1169" math="0" shadow="0">
      <root>
        <mxCell id="0" />
        <mxCell id="1" parent="0" />
        <mxCell id="gQgw2H4hHKZx14UbHLMa-33" value="" style="rounded=0;whiteSpace=wrap;html=1;fillColor=#f8cecc;strokeColor=#b85450;shadow=1;" parent="1" vertex="1">
          <mxGeometry x="400" y="170" width="40" height="40" as="geometry" />
        </mxCell>
        <mxCell id="uL05gRHiLYuL-cYjuzZd-5" style="edgeStyle=orthogonalEdgeStyle;curved=1;rounded=0;orthogonalLoop=1;jettySize=auto;html=1;exitX=0.25;exitY=0;exitDx=0;exitDy=0;entryX=0;entryY=0.25;entryDx=0;entryDy=0;" edge="1" parent="1" source="gQgw2H4hHKZx14UbHLMa-19" target="gQgw2H4hHKZx14UbHLMa-33">
          <mxGeometry relative="1" as="geometry" />
        </mxCell>
        <mxCell id="gQgw2H4hHKZx14UbHLMa-19" value="" style="rounded=0;whiteSpace=wrap;html=1;fillColor=#f5f5f5;fontColor=#333333;strokeColor=#666666;shadow=1;" parent="1" vertex="1">
          <mxGeometry x="360" y="210" width="40" height="40" as="geometry" />
        </mxCell>
        <mxCell id="uL05gRHiLYuL-cYjuzZd-6" style="edgeStyle=orthogonalEdgeStyle;curved=1;rounded=0;orthogonalLoop=1;jettySize=auto;html=1;exitX=0.5;exitY=0;exitDx=0;exitDy=0;entryX=0;entryY=0.75;entryDx=0;entryDy=0;" edge="1" parent="1" source="gQgw2H4hHKZx14UbHLMa-17" target="gQgw2H4hHKZx14UbHLMa-33">
          <mxGeometry relative="1" as="geometry" />
        </mxCell>
        <mxCell id="gQgw2H4hHKZx14UbHLMa-17" value="" style="rounded=0;whiteSpace=wrap;html=1;fillColor=#f5f5f5;fontColor=#333333;strokeColor=#666666;shadow=1;" parent="1" vertex="1">
          <mxGeometry x="320" y="250" width="40" height="40" as="geometry" />
        </mxCell>
        <mxCell id="gQgw2H4hHKZx14UbHLMa-18" value="" style="rounded=0;whiteSpace=wrap;html=1;fillColor=#f5f5f5;fontColor=#333333;strokeColor=#666666;shadow=1;" parent="1" vertex="1">
          <mxGeometry x="360" y="250" width="40" height="40" as="geometry" />
        </mxCell>
        <mxCell id="gQgw2H4hHKZx14UbHLMa-12" value="" style="rounded=0;whiteSpace=wrap;html=1;fillColor=#f5f5f5;fontColor=#333333;strokeColor=#666666;shadow=1;" parent="1" vertex="1">
          <mxGeometry x="280" y="290" width="40" height="40" as="geometry" />
        </mxCell>
        <mxCell id="gQgw2H4hHKZx14UbHLMa-13" value="" style="rounded=0;whiteSpace=wrap;html=1;fillColor=#f5f5f5;fontColor=#333333;strokeColor=#666666;shadow=1;" parent="1" vertex="1">
          <mxGeometry x="320" y="290" width="40" height="40" as="geometry" />
        </mxCell>
        <mxCell id="gQgw2H4hHKZx14UbHLMa-14" value="" style="rounded=0;whiteSpace=wrap;html=1;fillColor=#f5f5f5;fontColor=#333333;strokeColor=#666666;shadow=1;" parent="1" vertex="1">
          <mxGeometry x="360" y="290" width="40" height="40" as="geometry" />
        </mxCell>
        <mxCell id="gQgw2H4hHKZx14UbHLMa-11" value="" style="rounded=0;whiteSpace=wrap;html=1;fillColor=#f5f5f5;fontColor=#333333;strokeColor=#666666;shadow=1;" parent="1" vertex="1">
          <mxGeometry x="240" y="330" width="40" height="40" as="geometry" />
        </mxCell>
        <mxCell id="gQgw2H4hHKZx14UbHLMa-7" value="" style="rounded=0;whiteSpace=wrap;html=1;fillColor=#f5f5f5;fontColor=#333333;strokeColor=#666666;shadow=1;" parent="1" vertex="1">
          <mxGeometry x="280" y="330" width="40" height="40" as="geometry" />
        </mxCell>
        <mxCell id="gQgw2H4hHKZx14UbHLMa-8" value="" style="rounded=0;whiteSpace=wrap;html=1;fillColor=#f5f5f5;fontColor=#333333;strokeColor=#666666;shadow=1;" parent="1" vertex="1">
          <mxGeometry x="320" y="330" width="40" height="40" as="geometry" />
        </mxCell>
        <mxCell id="gQgw2H4hHKZx14UbHLMa-9" value="" style="rounded=0;whiteSpace=wrap;html=1;fillColor=#f5f5f5;fontColor=#333333;strokeColor=#666666;shadow=1;" parent="1" vertex="1">
          <mxGeometry x="360" y="330" width="40" height="40" as="geometry" />
        </mxCell>
        <mxCell id="gQgw2H4hHKZx14UbHLMa-1" value="" style="rounded=0;whiteSpace=wrap;html=1;fillColor=#f5f5f5;fontColor=#333333;strokeColor=#666666;shadow=1;" parent="1" vertex="1">
          <mxGeometry x="200" y="370" width="40" height="40" as="geometry" />
        </mxCell>
        <mxCell id="gQgw2H4hHKZx14UbHLMa-2" value="" style="rounded=0;whiteSpace=wrap;html=1;fillColor=#f5f5f5;fontColor=#333333;strokeColor=#666666;shadow=1;" parent="1" vertex="1">
          <mxGeometry x="240" y="370" width="40" height="40" as="geometry" />
        </mxCell>
        <mxCell id="gQgw2H4hHKZx14UbHLMa-3" value="" style="rounded=0;whiteSpace=wrap;html=1;fillColor=#f5f5f5;fontColor=#333333;strokeColor=#666666;shadow=1;" parent="1" vertex="1">
          <mxGeometry x="280" y="370" width="40" height="40" as="geometry" />
        </mxCell>
        <mxCell id="gQgw2H4hHKZx14UbHLMa-4" value="" style="rounded=0;whiteSpace=wrap;html=1;fillColor=#f5f5f5;fontColor=#333333;strokeColor=#666666;shadow=1;" parent="1" vertex="1">
          <mxGeometry x="320" y="370" width="40" height="40" as="geometry" />
        </mxCell>
        <mxCell id="gQgw2H4hHKZx14UbHLMa-5" value="" style="rounded=0;whiteSpace=wrap;html=1;fillColor=#f5f5f5;fontColor=#333333;strokeColor=#666666;shadow=1;" parent="1" vertex="1">
          <mxGeometry x="360" y="370" width="40" height="40" as="geometry" />
        </mxCell>
        <mxCell id="gQgw2H4hHKZx14UbHLMa-21" value="0" style="rounded=0;whiteSpace=wrap;html=1;fillColor=#f5f5f5;fontColor=#333333;strokeColor=#666666;shadow=0;opacity=0;" parent="1" vertex="1">
          <mxGeometry x="200" y="410" width="40" height="40" as="geometry" />
        </mxCell>
        <mxCell id="gQgw2H4hHKZx14UbHLMa-22" value="1" style="rounded=0;whiteSpace=wrap;html=1;fillColor=#f5f5f5;fontColor=#333333;strokeColor=#666666;shadow=0;opacity=0;" parent="1" vertex="1">
          <mxGeometry x="240" y="410" width="40" height="40" as="geometry" />
        </mxCell>
        <mxCell id="gQgw2H4hHKZx14UbHLMa-23" value="... ..." style="rounded=0;whiteSpace=wrap;html=1;fillColor=#f5f5f5;fontColor=#333333;strokeColor=#666666;shadow=0;opacity=0;" parent="1" vertex="1">
          <mxGeometry x="280" y="410" width="40" height="40" as="geometry" />
        </mxCell>
        <mxCell id="gQgw2H4hHKZx14UbHLMa-24" value="N-2" style="rounded=0;whiteSpace=wrap;html=1;fillColor=#f5f5f5;fontColor=#333333;strokeColor=#666666;shadow=0;opacity=0;" parent="1" vertex="1">
          <mxGeometry x="320" y="410" width="40" height="40" as="geometry" />
        </mxCell>
        <mxCell id="gQgw2H4hHKZx14UbHLMa-25" value="N-1" style="rounded=0;whiteSpace=wrap;html=1;fillColor=#f5f5f5;fontColor=#333333;strokeColor=#666666;shadow=0;opacity=0;" parent="1" vertex="1">
          <mxGeometry x="360" y="410" width="40" height="40" as="geometry" />
        </mxCell>
        <mxCell id="gQgw2H4hHKZx14UbHLMa-28" value="" style="rounded=0;whiteSpace=wrap;html=1;fillColor=#f5f5f5;fontColor=#333333;strokeColor=#666666;shadow=1;" parent="1" vertex="1">
          <mxGeometry x="400" y="210" width="40" height="40" as="geometry" />
        </mxCell>
        <mxCell id="gQgw2H4hHKZx14UbHLMa-29" value="" style="rounded=0;whiteSpace=wrap;html=1;fillColor=#f5f5f5;fontColor=#333333;strokeColor=#666666;shadow=1;" parent="1" vertex="1">
          <mxGeometry x="400" y="250" width="40" height="40" as="geometry" />
        </mxCell>
        <mxCell id="gQgw2H4hHKZx14UbHLMa-30" value="" style="rounded=0;whiteSpace=wrap;html=1;fillColor=#f5f5f5;fontColor=#333333;strokeColor=#666666;shadow=1;" parent="1" vertex="1">
          <mxGeometry x="400" y="290" width="40" height="40" as="geometry" />
        </mxCell>
        <mxCell id="gQgw2H4hHKZx14UbHLMa-31" value="" style="rounded=0;whiteSpace=wrap;html=1;fillColor=#f5f5f5;fontColor=#333333;strokeColor=#666666;shadow=1;" parent="1" vertex="1">
          <mxGeometry x="400" y="330" width="40" height="40" as="geometry" />
        </mxCell>
        <mxCell id="gQgw2H4hHKZx14UbHLMa-32" value="" style="rounded=0;whiteSpace=wrap;html=1;fillColor=#f5f5f5;fontColor=#333333;strokeColor=#666666;shadow=1;" parent="1" vertex="1">
          <mxGeometry x="400" y="370" width="40" height="40" as="geometry" />
        </mxCell>
        <mxCell id="gQgw2H4hHKZx14UbHLMa-34" value="" style="rounded=0;whiteSpace=wrap;html=1;shadow=0;opacity=0;" parent="1" vertex="1">
          <mxGeometry x="160" y="130" width="280" height="40" as="geometry" />
        </mxCell>
        <mxCell id="gQgw2H4hHKZx14UbHLMa-35" value="&lt;font face=&quot;Comic Sans MS&quot; style=&quot;font-size: 14px&quot;&gt;这是楼顶&lt;/font&gt;" style="text;html=1;strokeColor=none;fillColor=none;align=center;verticalAlign=middle;whiteSpace=wrap;rounded=0;shadow=0;opacity=0;" parent="1" vertex="1">
          <mxGeometry x="490" y="120" width="80" height="40" as="geometry" />
        </mxCell>
        <mxCell id="gQgw2H4hHKZx14UbHLMa-37" value="" style="curved=1;endArrow=classic;html=1;rounded=0;shadow=0;fontFamily=Comic Sans MS;" parent="1" edge="1">
          <mxGeometry width="50" height="50" relative="1" as="geometry">
            <mxPoint x="440" y="190" as="sourcePoint" />
            <mxPoint x="490" y="140" as="targetPoint" />
            <Array as="points">
              <mxPoint x="490" y="190" />
              <mxPoint x="440" y="140" />
            </Array>
          </mxGeometry>
        </mxCell>
        <mxCell id="gQgw2H4hHKZx14UbHLMa-38" value="原问题: 共有N个台阶，到达楼顶的最小花费是多少?" style="rounded=0;whiteSpace=wrap;html=1;shadow=0;fontFamily=Comic Sans MS;fontSize=14;opacity=0;" parent="1" vertex="1">
          <mxGeometry x="120" y="40" width="440" height="40" as="geometry" />
        </mxCell>
        <mxCell id="uL05gRHiLYuL-cYjuzZd-7" value="调整后的问题: &lt;b&gt;到达第N-1个台阶时的最小花费是多少?&lt;/b&gt;&lt;div class=&quot;okr-block-clipboard&quot;&gt;&lt;/div&gt;" style="rounded=0;whiteSpace=wrap;html=1;shadow=0;fontFamily=Comic Sans MS;fontSize=14;opacity=0;" vertex="1" parent="1">
          <mxGeometry x="120" y="80" width="440" height="40" as="geometry" />
        </mxCell>
        <mxCell id="uL05gRHiLYuL-cYjuzZd-8" style="edgeStyle=orthogonalEdgeStyle;curved=1;rounded=0;orthogonalLoop=1;jettySize=auto;html=1;exitX=0.5;exitY=1;exitDx=0;exitDy=0;entryX=0.5;entryY=1;entryDx=0;entryDy=0;shadow=0;fontSize=12;endArrow=classic;endFill=1;" edge="1" parent="1" source="uL05gRHiLYuL-cYjuzZd-9" target="uL05gRHiLYuL-cYjuzZd-12">
          <mxGeometry relative="1" as="geometry">
            <Array as="points">
              <mxPoint x="220" y="760" />
              <mxPoint x="380" y="760" />
            </Array>
          </mxGeometry>
        </mxCell>
        <mxCell id="uL05gRHiLYuL-cYjuzZd-9" value="0" style="ellipse;whiteSpace=wrap;html=1;aspect=fixed;shadow=1;fontSize=12;fillColor=#f5f5f5;fontColor=#333333;strokeColor=#666666;dashed=1;" vertex="1" parent="1">
          <mxGeometry x="200" y="680" width="40" height="40" as="geometry" />
        </mxCell>
        <mxCell id="uL05gRHiLYuL-cYjuzZd-10" style="edgeStyle=orthogonalEdgeStyle;curved=1;rounded=0;orthogonalLoop=1;jettySize=auto;html=1;exitX=0.5;exitY=0;exitDx=0;exitDy=0;entryX=0.5;entryY=0;entryDx=0;entryDy=0;shadow=0;fontSize=12;endArrow=classic;endFill=1;" edge="1" parent="1" source="uL05gRHiLYuL-cYjuzZd-11" target="uL05gRHiLYuL-cYjuzZd-12">
          <mxGeometry relative="1" as="geometry">
            <Array as="points">
              <mxPoint x="300" y="640" />
              <mxPoint x="380" y="640" />
            </Array>
          </mxGeometry>
        </mxCell>
        <mxCell id="uL05gRHiLYuL-cYjuzZd-11" value="1" style="ellipse;whiteSpace=wrap;html=1;aspect=fixed;shadow=1;fontSize=12;fillColor=#f5f5f5;fontColor=#333333;strokeColor=#666666;dashed=1;" vertex="1" parent="1">
          <mxGeometry x="280" y="680" width="40" height="40" as="geometry" />
        </mxCell>
        <mxCell id="uL05gRHiLYuL-cYjuzZd-12" value="2" style="ellipse;whiteSpace=wrap;html=1;aspect=fixed;shadow=1;fontSize=12;fillColor=#f5f5f5;fontColor=#333333;strokeColor=#666666;" vertex="1" parent="1">
          <mxGeometry x="360" y="680" width="40" height="40" as="geometry" />
        </mxCell>
        <mxCell id="uL05gRHiLYuL-cYjuzZd-13" value="3" style="ellipse;whiteSpace=wrap;html=1;aspect=fixed;shadow=1;fontSize=12;fillColor=#f5f5f5;fontColor=#333333;strokeColor=#666666;" vertex="1" parent="1">
          <mxGeometry x="440" y="680" width="40" height="40" as="geometry" />
        </mxCell>
        <mxCell id="uL05gRHiLYuL-cYjuzZd-14" value="0" style="ellipse;whiteSpace=wrap;html=1;aspect=fixed;shadow=1;fontSize=12;fillColor=#f5f5f5;fontColor=#333333;strokeColor=#666666;" vertex="1" parent="1">
          <mxGeometry x="200" y="800" width="40" height="40" as="geometry" />
        </mxCell>
        <mxCell id="uL05gRHiLYuL-cYjuzZd-15" style="edgeStyle=orthogonalEdgeStyle;curved=1;rounded=0;orthogonalLoop=1;jettySize=auto;html=1;exitX=0.5;exitY=1;exitDx=0;exitDy=0;entryX=0.5;entryY=1;entryDx=0;entryDy=0;shadow=0;fontSize=12;endArrow=classic;endFill=1;" edge="1" parent="1" source="uL05gRHiLYuL-cYjuzZd-16" target="uL05gRHiLYuL-cYjuzZd-19">
          <mxGeometry relative="1" as="geometry">
            <Array as="points">
              <mxPoint x="300" y="880" />
              <mxPoint x="460" y="880" />
            </Array>
          </mxGeometry>
        </mxCell>
        <mxCell id="uL05gRHiLYuL-cYjuzZd-16" value="1" style="ellipse;whiteSpace=wrap;html=1;aspect=fixed;shadow=1;fontSize=12;fillColor=#f5f5f5;fontColor=#333333;strokeColor=default;dashed=1;" vertex="1" parent="1">
          <mxGeometry x="280" y="800" width="40" height="40" as="geometry" />
        </mxCell>
        <mxCell id="uL05gRHiLYuL-cYjuzZd-17" style="edgeStyle=orthogonalEdgeStyle;rounded=0;orthogonalLoop=1;jettySize=auto;html=1;exitX=0.5;exitY=0;exitDx=0;exitDy=0;entryX=0.5;entryY=0;entryDx=0;entryDy=0;shadow=0;fontSize=12;endArrow=classic;endFill=1;curved=1;" edge="1" parent="1" source="uL05gRHiLYuL-cYjuzZd-18" target="uL05gRHiLYuL-cYjuzZd-19">
          <mxGeometry relative="1" as="geometry">
            <Array as="points">
              <mxPoint x="380" y="760" />
              <mxPoint x="460" y="760" />
            </Array>
          </mxGeometry>
        </mxCell>
        <mxCell id="uL05gRHiLYuL-cYjuzZd-18" value="2" style="ellipse;whiteSpace=wrap;html=1;aspect=fixed;shadow=1;fontSize=12;fillColor=#f5f5f5;fontColor=#333333;strokeColor=#666666;dashed=1;" vertex="1" parent="1">
          <mxGeometry x="360" y="800" width="40" height="40" as="geometry" />
        </mxCell>
        <mxCell id="uL05gRHiLYuL-cYjuzZd-19" value="3" style="ellipse;whiteSpace=wrap;html=1;aspect=fixed;shadow=1;fontSize=12;fillColor=#f5f5f5;fontColor=#333333;strokeColor=#666666;" vertex="1" parent="1">
          <mxGeometry x="440" y="800" width="40" height="40" as="geometry" />
        </mxCell>
        <mxCell id="uL05gRHiLYuL-cYjuzZd-20" value="0" style="ellipse;whiteSpace=wrap;html=1;aspect=fixed;shadow=1;fontSize=12;fillColor=#f5f5f5;fontColor=#333333;strokeColor=#666666;" vertex="1" parent="1">
          <mxGeometry x="160" y="920" width="40" height="40" as="geometry" />
        </mxCell>
        <mxCell id="uL05gRHiLYuL-cYjuzZd-21" style="edgeStyle=orthogonalEdgeStyle;curved=1;rounded=0;orthogonalLoop=1;jettySize=auto;html=1;exitX=0.5;exitY=1;exitDx=0;exitDy=0;entryX=0.5;entryY=1;entryDx=0;entryDy=0;shadow=0;fontSize=12;endArrow=classic;endFill=1;" edge="1" parent="1" source="uL05gRHiLYuL-cYjuzZd-22" target="uL05gRHiLYuL-cYjuzZd-25">
          <mxGeometry relative="1" as="geometry">
            <Array as="points">
              <mxPoint x="340" y="1000" />
              <mxPoint x="500" y="1000" />
            </Array>
          </mxGeometry>
        </mxCell>
        <mxCell id="uL05gRHiLYuL-cYjuzZd-22" value="N-3" style="ellipse;whiteSpace=wrap;html=1;aspect=fixed;shadow=1;fontSize=12;fillColor=#f5f5f5;fontColor=#333333;strokeColor=#666666;dashed=1;" vertex="1" parent="1">
          <mxGeometry x="320" y="920" width="40" height="40" as="geometry" />
        </mxCell>
        <mxCell id="uL05gRHiLYuL-cYjuzZd-23" style="edgeStyle=orthogonalEdgeStyle;rounded=0;orthogonalLoop=1;jettySize=auto;html=1;exitX=0.5;exitY=0;exitDx=0;exitDy=0;entryX=0.5;entryY=0;entryDx=0;entryDy=0;shadow=0;fontSize=12;endArrow=classic;endFill=1;curved=1;" edge="1" parent="1" source="uL05gRHiLYuL-cYjuzZd-24" target="uL05gRHiLYuL-cYjuzZd-25">
          <mxGeometry relative="1" as="geometry">
            <Array as="points">
              <mxPoint x="420" y="880" />
              <mxPoint x="500" y="880" />
            </Array>
          </mxGeometry>
        </mxCell>
        <mxCell id="uL05gRHiLYuL-cYjuzZd-24" value="N-2" style="ellipse;whiteSpace=wrap;html=1;aspect=fixed;shadow=1;fontSize=12;fillColor=#f5f5f5;fontColor=#333333;strokeColor=#666666;dashed=1;" vertex="1" parent="1">
          <mxGeometry x="400" y="920" width="40" height="40" as="geometry" />
        </mxCell>
        <mxCell id="uL05gRHiLYuL-cYjuzZd-25" value="N-1" style="ellipse;whiteSpace=wrap;html=1;aspect=fixed;shadow=1;fontSize=12;fillColor=#f5f5f5;fontColor=#333333;strokeColor=#666666;" vertex="1" parent="1">
          <mxGeometry x="480" y="920" width="40" height="40" as="geometry" />
        </mxCell>
        <mxCell id="uL05gRHiLYuL-cYjuzZd-26" value="... ..." style="ellipse;whiteSpace=wrap;html=1;aspect=fixed;shadow=1;fontSize=12;fillColor=#f5f5f5;fontColor=#333333;strokeColor=#666666;" vertex="1" parent="1">
          <mxGeometry x="240" y="920" width="40" height="40" as="geometry" />
        </mxCell>
        <mxCell id="uL05gRHiLYuL-cYjuzZd-27" value="状态转换图解" style="text;html=1;strokeColor=none;fillColor=none;align=center;verticalAlign=middle;whiteSpace=wrap;rounded=0;shadow=1;fontSize=12;" vertex="1" parent="1">
          <mxGeometry x="200" y="600" width="280" height="40" as="geometry" />
        </mxCell>
        <mxCell id="uL05gRHiLYuL-cYjuzZd-28" value="cost[2]" style="text;html=1;strokeColor=none;fillColor=none;align=center;verticalAlign=middle;whiteSpace=wrap;rounded=0;" vertex="1" parent="1">
          <mxGeometry x="310" y="640" width="60" height="30" as="geometry" />
        </mxCell>
        <mxCell id="uL05gRHiLYuL-cYjuzZd-29" value="cost[2]" style="text;html=1;strokeColor=none;fillColor=none;align=center;verticalAlign=middle;whiteSpace=wrap;rounded=0;" vertex="1" parent="1">
          <mxGeometry x="270" y="730" width="60" height="30" as="geometry" />
        </mxCell>
        <mxCell id="uL05gRHiLYuL-cYjuzZd-30" value="cost[3]" style="text;html=1;strokeColor=none;fillColor=none;align=center;verticalAlign=middle;whiteSpace=wrap;rounded=0;" vertex="1" parent="1">
          <mxGeometry x="390" y="760" width="60" height="30" as="geometry" />
        </mxCell>
        <mxCell id="uL05gRHiLYuL-cYjuzZd-31" value="cost[3]" style="text;html=1;strokeColor=none;fillColor=none;align=center;verticalAlign=middle;whiteSpace=wrap;rounded=0;" vertex="1" parent="1">
          <mxGeometry x="350" y="850" width="60" height="30" as="geometry" />
        </mxCell>
        <mxCell id="uL05gRHiLYuL-cYjuzZd-32" value="cost[N-1]" style="text;html=1;strokeColor=none;fillColor=none;align=center;verticalAlign=middle;whiteSpace=wrap;rounded=0;" vertex="1" parent="1">
          <mxGeometry x="430" y="890" width="60" height="30" as="geometry" />
        </mxCell>
        <mxCell id="uL05gRHiLYuL-cYjuzZd-33" value="cost[N-2]" style="text;html=1;strokeColor=none;fillColor=none;align=center;verticalAlign=middle;whiteSpace=wrap;rounded=0;" vertex="1" parent="1">
          <mxGeometry x="390" y="970" width="60" height="30" as="geometry" />
        </mxCell>
      </root>
    </mxGraphModel>
  </diagram>
</mxfile>
